<?xml version="1.0" encoding="UTF-8" standalone="no"?>
<!-- Created with Inkscape (http://www.inkscape.org/) -->

<svg
   xmlns:dc="http://purl.org/dc/elements/1.1/"
   xmlns:cc="http://creativecommons.org/ns#"
   xmlns:rdf="http://www.w3.org/1999/02/22-rdf-syntax-ns#"
   xmlns:svg="http://www.w3.org/2000/svg"
   xmlns="http://www.w3.org/2000/svg"
   xmlns:sodipodi="http://sodipodi.sourceforge.net/DTD/sodipodi-0.dtd"
   xmlns:inkscape="http://www.inkscape.org/namespaces/inkscape"
   width="531.49603"
   height="531.49603"
   id="svg2"
   version="1.1"
   inkscape:version="0.48.0 r9654"
   sodipodi:docname="svgtest.svg">
  <sodipodi:namedview
     id="base"
     pagecolor="#ffffff"
     bordercolor="#666666"
     borderopacity="1.0"
     inkscape:pageopacity="0.0"
     inkscape:pageshadow="2"
     inkscape:zoom="1.979899"
     inkscape:cx="198.03691"
     inkscape:cy="229.14454"
     inkscape:document-units="mm"
     inkscape:current-layer="layer2"
     showgrid="false"
     units="mm"
     inkscape:window-width="1920"
     inkscape:window-height="1018"
     inkscape:window-x="-4"
     inkscape:window-y="39"
     inkscape:window-maximized="1">
    <inkscape:grid
       type="xygrid"
       id="grid3772" />
  </sodipodi:namedview>
  <defs
     id="defs4" />
  <metadata
     id="metadata7">
    <rdf:RDF>
      <cc:Work
         rdf:about="">
        <dc:format>image/svg+xml</dc:format>
        <dc:type
           rdf:resource="http://purl.org/dc/dcmitype/StillImage" />
        <dc:title />
      </cc:Work>
    </rdf:RDF>
  </metadata>
  <g
     transform="translate(0,-520.866)"
     id="layer1"
     inkscape:groupmode="layer"
     inkscape:label="Layer 1">
    <g
       id="g2991"
       transform="matrix(3.9928345,0,0,3.9928345,281.72728,789.83541)"
       inkscape:label="Gear16"
       style="stroke:#000000;stroke-opacity:1;stroke-width:2.66224939999999988;stroke-miterlimit:4;stroke-dasharray:none;stroke-linejoin:round;stroke-linecap:round">
      <path
         id="path2993"
         d="m 31.477788,2.9644426 3.273,-0.372 3.132,0.408 6.573,2.873 0,4.2380004 -6.573,2.873 -3.132,0.408 -3.273,-0.372 -1.446,7.271 3.166,0.909 2.738,1.576 4.972,5.17 -1.622,3.914 -7.171,0.14 -3.05,-0.821 -2.882,-1.597 -4.119,6.163995 2.578,2.052 1.926,2.503 2.616,6.68 -2.996,2.996 -6.68,-2.616 -2.503,-1.926 -2.052004,-2.578 -6.1640002,4.119 1.5970002,2.882 0.821,3.05 -0.14,7.171 -3.9140002,1.622 -5.17,-4.972 -1.57600002,-2.738 -0.909,-3.166 -7.27099998,1.446 0.372,3.273 -0.408,3.132 -2.8729998,6.573 -4.238,0 -2.873,-6.573 -0.408,-3.132 0.372,-3.273 -7.271,-1.446 -0.909,3.166 -1.576,2.738 -5.17,4.972 -3.914,-1.622 -0.14,-7.171 0.821,-3.05 1.597,-2.882 -6.164,-4.119 -2.052,2.578 -2.503,1.926 -6.68,2.616 -2.996,-2.996 2.616,-6.68 1.926,-2.503 2.578,-2.052 -4.119,-6.163995 -2.882,1.597 -3.05,0.821 -7.171,-0.14 -1.622,-3.914 4.972,-5.17 2.738,-1.576 3.166,-0.909 -1.446,-7.271 -3.273,0.372 -3.132,-0.408 -6.573,-2.873 0,-4.2380004 6.573,-2.873 3.132,-0.408 3.273,0.372 1.446,-7.271 -3.166,-0.909 -2.738,-1.576 -4.972,-5.1699996 1.622,-3.914 7.171,-0.14 3.05,0.821 2.882,1.597 4.119,-6.164 -2.578,-2.052 -1.926,-2.503 -2.616,-6.68 2.996,-2.996 6.68,2.616 2.503,1.926 2.052,2.578 6.164,-4.119 -1.597,-2.882 -0.821,-3.05 0.14,-7.171 3.914,-1.622 5.17,4.972 1.576,2.738 0.909,3.166 7.271,-1.446 -0.372,-3.273 0.408,-3.132 2.873,-6.573 4.238,0 2.8729998,6.573 0.408,3.132 -0.372,3.273 7.27099998,1.446 0.909,-3.166 1.57600002,-2.738 5.17,-4.972 3.9140002,1.622 0.14,7.171 -0.821,3.05 -1.5970002,2.882 6.1640002,4.119 2.052004,-2.578 2.503,-1.926 6.68,-2.616 2.996,2.996 -2.616,6.68 -1.926,2.503 -2.578,2.052 4.119,6.164 2.882,-1.597 3.05,-0.821 7.171,0.14 1.622,3.914 -4.972,5.1699996 -2.738,1.576 -3.166,0.909 z"
         style="fill:#000000;stroke:#000000;stroke-width:2.66224939999999988;stroke-miterlimit:4;stroke-dasharray:none;stroke-opacity:1;stroke-linejoin:round;stroke-linecap:round"
         inkscape:connector-curvature="0" />
    </g>
    <path
       sodipodi:type="arc"
       style="color:#000000;fill:#ffffff;fill-opacity:1;fill-rule:nonzero;stroke:#ffffff;stroke-width:10.62992096;stroke-linecap:round;stroke-linejoin:round;stroke-miterlimit:4;stroke-opacity:1;stroke-dasharray:none;stroke-dashoffset:0;marker:none;visibility:visible;display:inline;overflow:visible;enable-background:accumulate"
       id="path3768"
       sodipodi:cx="232.84016"
       sodipodi:cy="304.7168"
       sodipodi:rx="42.931484"
       sodipodi:ry="42.931484"
       d="m 275.77165,304.7168 a 42.931484,42.931484 0 1 1 -85.86297,0 42.931484,42.931484 0 1 1 85.86297,0 z"
       transform="translate(-2.2260131,517.03111)" />
  </g>
  <g
     inkscape:groupmode="layer"
     id="layer2"
     inkscape:label="Layer">
    <g
       transform="translate(2.6903523,-518.366)"
       style="font-size:48.78166962px;font-style:normal;font-weight:normal;line-height:125%;letter-spacing:0px;word-spacing:0px;fill:none;stroke:#ffffff;stroke-width:1.35354328;stroke-linecap:round;stroke-linejoin:round;stroke-miterlimit:4;stroke-dasharray:none;font-family:Bitstream Vera Sans"
       id="text3774">
      <path
         inkscape:connector-curvature="0"
         d="m 135.60311,770.43048 2.70208,-3.98108 27.37489,18.58013 c 3.5475,2.40779 5.66346,4.83232 6.34789,7.27359 0.69332,2.42813 0.0278,5.13346 -1.99649,8.116 l -1.03,1.51754 -3.35042,-2.27403 0.84272,-1.24162 c 1.19498,-1.76062 1.54499,-3.33666 1.05006,-4.72813 -0.49495,-1.39147 -2.01689,-2.95222 -4.56583,-4.68227 l -27.3749,-18.58013"
         style="stroke-width:1.35354328;stroke-linecap:round;stroke-linejoin:round;stroke-miterlimit:4;stroke-dasharray:none"
         id="path3796" />
      <path
         inkscape:connector-curvature="0"
         d="m 177.62108,756.75191 c -2.05305,-2.42305 -4.14694,-3.87493 -6.28169,-4.35563 -2.12263,-0.49092 -4.08654,0.0284 -5.89173,1.55786 -1.79307,1.51928 -2.62781,3.37125 -2.50422,5.55593 0.13572,2.17446 1.2301,4.47322 3.28313,6.89627 2.04278,2.41097 4.12549,3.86192 6.24812,4.35286 2.13475,0.48068 4.09866,-0.0386 5.89174,-1.55786 1.80518,-1.52951 2.63992,-3.38148 2.50422,-5.55594 -0.12361,-2.18468 -1.2068,-4.48251 -3.24957,-6.89349 m 10.0265,5.0539 c 2.93583,3.46502 4.34786,6.69137 4.2361,9.67908 -0.10155,2.99984 -1.73942,5.8445 -4.91363,8.53398 -1.1752,0.99573 -2.36075,1.84413 -3.55663,2.54521 -1.18565,0.71319 -2.42312,1.30379 -3.71241,1.77182 l -2.75621,-3.25298 c 1.43301,-0.2984 2.73585,-0.72587 3.90855,-1.2824 1.17267,-0.55653 2.25574,-1.25567 3.24922,-2.09742 2.19286,-1.858 3.3469,-3.82441 3.4621,-5.89925 0.12544,-2.0627 -0.79216,-4.25107 -2.7528,-6.56512 l -1.40121,-1.65375 c 0.32567,1.78455 0.20087,3.43045 -0.37438,4.93769 -0.57529,1.50727 -1.61408,2.89734 -3.11637,4.17022 -2.49578,2.11464 -5.31275,2.86761 -8.45092,2.25891 -3.13817,-0.60869 -6.0366,-2.48198 -8.6953,-5.61987 -2.66894,-3.14998 -4.04597,-6.32274 -4.13108,-9.51829 -0.0851,-3.19551 1.12024,-5.85059 3.61599,-7.96525 1.50231,-1.27286 3.0441,-2.06927 4.62536,-2.38926 1.58126,-0.31992 3.22531,-0.17274 4.93214,0.44153 l -2.61763,-3.08942 3.34384,-2.8332 15.10527,17.82777"
         style="stroke-width:1.35354328;stroke-linecap:round;stroke-linejoin:round;stroke-miterlimit:4;stroke-dasharray:none"
         id="path3798" />
      <path
         inkscape:connector-curvature="0"
         d="m 208.95006,730.03705 1.18992,3.92029 c -1.38354,-0.29361 -2.72392,-0.4178 -4.02116,-0.37256 -1.28668,0.0255 -2.53781,0.22269 -3.7534,0.59163 -2.71989,0.82559 -4.5691,2.33278 -5.54761,4.52158 -0.98313,2.17364 -1.00196,4.81793 -0.0565,7.93287 0.94548,3.11497 2.43326,5.31026 4.46334,6.58587 2.02545,1.26044 4.39813,1.47787 7.11803,0.6523 1.21558,-0.36896 2.36755,-0.89287 3.45591,-1.57171 1.09892,-0.69864 2.14182,-1.55452 3.12873,-2.56765 l 1.17608,3.8747 c -1.00399,0.90216 -2.09506,1.68138 -3.2732,2.33769 -1.16298,0.65171 -2.45103,1.19202 -3.86414,1.62094 -3.84432,1.16686 -7.26516,0.8859 -10.26252,-0.8429 -2.99737,-1.72878 -5.11868,-4.64448 -6.36395,-8.74712 -1.26371,-4.16339 -1.118,-7.7838 0.43714,-10.86124 1.57033,-3.082 4.34603,-5.22719 8.3271,-6.43559 1.29156,-0.392 2.59425,-0.63805 3.90806,-0.73815 1.30919,-0.11524 2.6219,-0.0822 3.93815,0.0991"
         style="stroke-width:1.35354328;stroke-linecap:round;stroke-linejoin:round;stroke-miterlimit:4;stroke-dasharray:none"
         id="path3800" />
      <path
         inkscape:connector-curvature="0"
         d="m 243.32863,742.40767 c 0.37533,-3.15362 0.0118,-5.67556 -1.09045,-7.56585 -1.08657,-1.88837 -2.80457,-2.97238 -5.154,-3.25203 -2.3337,-0.27774 -4.25815,0.37274 -5.77333,1.95145 -1.49944,1.58062 -2.43683,3.94774 -2.81217,7.10135 -0.37348,3.13788 -0.0169,5.651 1.06961,7.53938 1.10231,1.89027 2.82031,2.97429 5.15401,3.25204 2.34944,0.27964 4.27388,-0.37085 5.77333,-1.95145 1.51517,-1.57873 2.45951,-3.93702 2.833,-7.07489 m 3.13025,10.78305 c -0.53677,4.50969 -1.93685,7.74125 -4.20025,9.69468 -2.26532,1.96919 -5.4636,2.70793 -9.59484,2.21624 -1.52952,-0.18206 -2.95823,-0.47204 -4.28613,-0.86995 -1.32979,-0.38217 -2.60515,-0.88577 -3.82606,-1.51083 l 0.50391,-4.23375 c 1.19463,0.84581 2.39509,1.50842 3.60137,1.98782 1.20627,0.47938 2.45589,0.79603 3.74889,0.94993 2.85403,0.33968 5.07975,-0.15501 6.6772,-1.48407 1.59552,-1.3133 2.57252,-3.47581 2.931,-6.48753 l 0.25618,-2.15235 c -1.0846,1.45407 -2.37456,2.48392 -3.86986,3.08953 -1.49535,0.6056 -3.22063,0.79205 -5.17587,0.55934 -3.24825,-0.38661 -5.71844,-1.93595 -7.41057,-4.64802 -1.69214,-2.71207 -2.29517,-6.11007 -1.80909,-10.19404 0.48794,-4.0997 1.87264,-7.26912 4.15408,-9.50827 2.28143,-2.23911 5.04626,-3.16537 8.29451,-2.77879 1.95524,0.23274 3.58856,0.81894 4.89999,1.75858 1.31138,0.93969 2.32358,2.24354 3.03659,3.91154 l 0.47857,-4.02088 4.35201,0.51798 -2.76163,23.20284"
         style="stroke-width:1.35354328;stroke-linecap:round;stroke-linejoin:round;stroke-miterlimit:4;stroke-dasharray:none"
         id="path3802" />
      <path
         inkscape:connector-curvature="0"
         d="m 281.76883,758.50712 -1.07186,1.85652 -17.45131,-10.07548 c -1.34353,2.70816 -1.71093,5.15476 -1.10218,7.33981 0.63042,2.17924 2.20394,3.99534 4.72057,5.44831 1.4577,0.8416 2.97049,1.47665 4.5384,1.90513 1.58161,0.43641 3.2527,0.68611 5.01329,0.74911 l -2.07226,3.58927 c -1.69494,-0.20845 -3.34484,-0.57427 -4.9497,-1.09744 -1.6049,-0.5232 -3.14308,-1.20956 -4.61453,-2.0591 -3.68555,-2.12785 -5.98855,-4.88769 -6.90902,-8.27953 -0.90673,-3.38391 -0.30411,-6.90488 1.80786,-10.56292 2.18341,-3.7818 4.93191,-6.1922 8.24551,-7.23121 3.33527,-1.04479 6.73566,-0.5668 10.20119,1.43399 3.10793,1.79439 4.98306,4.21552 5.62541,7.2634 0.66398,3.04209 0.004,6.28213 -1.98137,9.72014 m -3.15244,-3.30528 c 1.17136,-2.09243 1.54363,-4.08698 1.11682,-5.98366 -0.41312,-1.88873 -1.55481,-3.373 -3.42505,-4.45281 -2.11784,-1.2227 -4.16159,-1.60504 -6.13126,-1.14702 -1.95596,0.46599 -3.65742,1.7298 -5.10441,3.79145 l 13.5439,7.79204"
         style="stroke-width:1.35354328;stroke-linecap:round;stroke-linejoin:round;stroke-miterlimit:4;stroke-dasharray:none"
         id="path3804" />
      <path
         inkscape:connector-curvature="0"
         d="m 306.1185,784.42298 -12.96104,9.55396 -2.60049,-3.52786 12.846,-9.46916 c 2.03233,-1.49811 3.26131,-3.01558 3.68696,-4.5524 0.42559,-1.53684 0.0542,-3.09774 -1.11407,-4.68272 -1.40392,-1.90453 -3.11815,-2.95888 -5.14272,-3.16305 -2.02462,-0.20416 -4.08505,0.46637 -6.18129,2.01158 l -12.1366,8.94624 -2.61462,-3.54704 21.47392,-15.82904 2.61462,3.54703 -3.33613,2.45916 c 1.91282,-0.108 3.60808,0.17124 5.08577,0.83774 1.48706,0.67929 2.7818,1.76669 3.88421,3.26219 1.81842,2.46694 2.42711,4.89845 1.82608,7.29452 -0.58832,2.38665 -2.36519,4.67293 -5.3306,6.85885"
         style="stroke-width:1.35354328;stroke-linecap:round;stroke-linejoin:round;stroke-miterlimit:4;stroke-dasharray:none"
         id="path3806" />
    </g>
  </g>
</svg>
